Coordinates
version=1
nRows=7
nColumns=40
inDegrees=yes

Units are S.I. units (second, meters, Newtons, ...)
Angles are in degrees.

endheader
time	pelvis_tilt	pelvis_list	pelvis_rotation	pelvis_tx	pelvis_ty	pelvis_tz	hip_flexion_r	hip_adduction_r	hip_rotation_r	knee_angle_r	knee_angle_r_beta	ankle_angle_r	subtalar_angle_r	mtp_angle_r	hip_flexion_l	hip_adduction_l	hip_rotation_l	knee_angle_l	knee_angle_l_beta	ankle_angle_l	subtalar_angle_l	mtp_angle_l	lumbar_extension	lumbar_bending	lumbar_rotation	arm_flex_r	arm_add_r	arm_rot_r	elbow_flex_r	pro_sup_r	wrist_flex_r	wrist_dev_r	arm_flex_l	arm_add_l	arm_rot_l	elbow_flex_l	pro_sup_l	wrist_flex_l	wrist_dev_l
     11.66000000	     -5.69696348	     -4.57733822	     -1.57587835	      0.98395939	      0.93208618	      0.42603291	     33.04092163	     -6.30873915	     -7.77932387	     68.99331200	     68.99331200	      0.73483195	    -14.17867300	      0.73590507	     16.51201946	     -4.77718557	     -7.02798823	     21.62094785	     21.62094785	     12.88388396	     -8.72259459	      0.61173237	    -11.44497151	      4.58311322	      2.62215247	     18.20935141	    -15.48721175	     -8.27290303	     71.38637130	     45.71820771	      0.00000000	      0.00000000	      6.80718494	    -13.72571337	     -4.55561461	     55.17452726	     46.20151968	      0.00000000	      0.00000000
     11.67157143	     -5.71303099	     -4.51969445	     -1.74711302	      0.98212395	      0.93268494	      0.42584605	     34.25354270	     -6.29710709	     -7.78220270	     67.49595545	     67.49595545	      0.75411955	    -13.59642646	      0.49610757	     15.61090435	     -4.63835186	     -7.15122429	     20.84883872	     20.84883872	     13.03584353	     -8.68294088	      0.63570498	    -11.57123103	      4.57634470	      3.03366876	     15.87503052	    -15.91815207	     -8.20856253	     68.65451448	     45.79176121	      0.00000000	      0.00000000	      8.74475411	    -13.87609536	     -4.84935214	     56.74529032	     46.27616510	      0.00000000	      0.00000000
     11.68314286	     -5.72811269	     -4.53765567	     -1.89954146	      0.98034114	      0.93322596	      0.42578803	     35.25255435	     -6.15633433	     -7.84533649	     65.66070526	     65.66070526	      0.46782314	    -13.27441642	     -0.23144829	     14.74876264	     -4.62519148	     -7.37329178	     20.13229457	     20.13229457	     13.03636839	     -8.44999238	      0.01558626	    -11.67085982	      4.59963247	      2.94182572	     14.70699180	    -15.67150338	     -8.26328147	     63.77001624	     45.93393676	      0.00000000	      0.00000000	      9.97031545	    -14.46950782	     -4.85362245	     59.27986594	     46.36793309	      0.00000000	      0.00000000
     11.69471429	     -5.70124990	     -4.57083112	     -2.04476185	      0.97865259	      0.93369160	      0.42577779	     36.08123295	     -5.97130577	     -7.89741312	     63.64817916	     63.64817916	      0.22897315	    -12.97341765	     -0.65003311	     13.81001771	     -4.63359252	     -7.67103517	     19.34833633	     19.34833633	     13.00905098	     -8.13220983	     -0.66807060	    -11.83197132	      4.66325491	      2.58277788	     13.74812592	    -15.52091430	     -7.63067237	     58.96929843	     46.03636443	      0.00000000	      0.00000000	     11.00534660	    -15.03646260	     -5.27885065	     62.02156596	     46.51593086	      0.00000000	      0.00000000
     11.70628571	     -5.65997429	     -4.56515117	     -2.17115911	      0.97700743	      0.93401998	      0.42580745	     36.75422176	     -5.82336721	     -7.96123425	     61.41049983	     61.41049983	      0.17846854	    -12.62338294	     -0.45434651	     12.92300382	     -4.59695414	     -7.92658346	     18.69097200	     18.69097200	     13.20922192	     -7.76584849	     -0.89181713	    -12.04432226	      4.68145793	      2.96985156	     11.82823608	    -15.80875856	     -7.22417584	     55.99083358	     46.10171561	      0.00000000	      0.00000000	     12.75039787	    -15.11180979	     -5.61293488	     64.01223129	     46.60470255	      0.00000000	      0.00000000
     11.71785714	     -5.64951877	     -4.64334957	     -2.24542895	      0.97547253	      0.93421222	      0.42590995	     37.25865698	     -5.60729913	     -8.14357773	     58.85311439	     58.85311439	      0.13751408	    -12.33733972	     -0.14518135	     12.08445092	     -4.65064190	     -8.11735611	     18.05236373	     18.05236373	     13.44489763	     -7.36573768	     -1.09260954	    -12.22218256	      4.84867378	      3.26843628	      9.98952456	    -15.97949821	     -6.89258105	     53.23181988	     46.16837688	      0.00000000	      0.00000000	     14.39705983	    -15.16563556	     -5.77032784	     65.86477484	     46.66646002	      0.00000000	      0.00000000
     11.72942857	     -5.66754033	     -4.60402461	     -2.33835907	      0.97387494	      0.93405744	      0.42620330	     37.69014113	     -5.46183448	     -8.24504861	     56.05898758	     56.05898758	      0.07000535	    -12.16125554	     -0.12205827	     11.40684149	     -4.66031376	     -8.58058226	     17.63809033	     17.63809033	     13.49934156	     -6.75394742	     -2.07742676	    -12.26340309	      4.79396876	      2.49645183	     10.60341064	    -15.28112043	     -5.95668486	     45.79552781	     46.35492906	      0.00000000	      0.00000000	     14.95446741	    -16.29524988	     -5.61719791	     68.99907589	     46.76680378	      0.00000000	      0.00000000
